<?xml version="1.0" standalone="no"?>
<!DOCTYPE svg PUBLIC "-//W3C//DTD SVG 20010904//EN"
 "http://www.w3.org/TR/2001/REC-SVG-20010904/DTD/svg10.dtd">
<svg version="1.0" xmlns="http://www.w3.org/2000/svg"
 width="256.000000pt" height="256.000000pt" viewBox="0 0 256.000000 256.000000"
 preserveAspectRatio="xMidYMid meet">

<g transform="translate(0.000000,256.000000) scale(0.100000,-0.100000)"
fill="#000000" stroke="none">
<path d="M1075 2526 c-222 -43 -393 -118 -559 -245 -121 -92 -244 -230 -266
-298 -7 -21 -18 -44 -24 -52 -6 -8 21 9 59 39 114 87 207 120 340 120 45 0
107 -7 138 -15 179 -47 331 -189 389 -364 20 -61 21 -81 17 -271 -7 -351 -7
-350 30 -424 33 -68 96 -133 163 -167 89 -46 226 -9 321 86 53 53 73 88 143
255 57 137 79 175 130 219 98 86 237 108 354 55 70 -31 141 -102 173 -172 17
-37 22 -65 22 -132 -1 -107 -31 -177 -106 -244 -74 -67 -128 -83 -320 -96
-244 -17 -235 -12 -424 -205 -88 -90 -173 -168 -188 -174 -39 -15 -101 -14
-140 3 -54 23 -84 66 -140 204 -66 160 -87 193 -155 238 -104 70 -198 95 -412
113 -172 15 -263 54 -373 159 -76 74 -141 187 -153 269 l-7 48 -34 -100 c-32
-94 -34 -105 -28 -189 21 -307 147 -580 369 -802 246 -246 534 -366 881 -367
356 -2 649 118 901 368 637 633 424 1710 -407 2061 -151 64 -261 86 -454 90
-116 2 -192 -1 -240 -10z m475 -1116 c86 -24 151 -113 151 -207 0 -192 -231
-291 -363 -156 -110 113 -82 285 56 349 55 26 100 30 156 14z m-616 -618 c61
-36 84 -128 46 -190 -62 -101 -204 -94 -251 13 -25 57 -18 104 23 151 48 54
115 64 182 26z m1055 -117 c59 -30 64 -114 9 -160 -53 -45 -126 -27 -153 39
-18 42 -8 81 27 111 34 28 75 32 117 10z"/>
<path d="M73 1525 c0 -22 2 -30 4 -17 2 12 2 30 0 40 -3 9 -5 -1 -4 -23z"/>
</g>
</svg>
